<?xml version="1.0" encoding="utf-8"?>
<!-- Generator: Adobe Illustrator 17.1.0, SVG Export Plug-In . SVG Version: 6.00 Build 0)  -->
<!DOCTYPE svg PUBLIC "-//W3C//DTD SVG 1.1//EN" "http://www.w3.org/Graphics/SVG/1.1/DTD/svg11.dtd">
<svg class="color-1" version="1.1" id="Layer_1" xmlns="http://www.w3.org/2000/svg" xmlns:xlink="http://www.w3.org/1999/xlink" x="0px" y="0px"
	 viewBox="0 0 320 320" enable-background="new 0 0 320 320" xml:space="preserve">
<g>
	<path d="M160,320C71.776,320,0,248.224,0,160S71.776,0,160,0s160,71.776,160,160S248.224,320,160,320z M160,7.417
		C75.865,7.417,7.417,75.865,7.417,160S75.865,312.584,160,312.584S312.584,244.135,312.584,160S244.135,7.417,160,7.417z"/>
	<path d="M160,285.592c-69.252,0-125.592-56.34-125.592-125.592c0-69.252,56.34-125.592,125.592-125.592
		c69.251,0,125.592,56.34,125.592,125.592C285.592,229.251,229.251,285.592,160,285.592z M160,51.885
		c-59.615,0-108.115,48.5-108.115,108.115S100.385,268.116,160,268.116S268.116,219.615,268.116,160S219.615,51.885,160,51.885z"/>
</g>
</svg>
