<?xml version="1.0" encoding="utf-8"?>
<!-- Generator: Adobe Illustrator 17.1.0, SVG Export Plug-In . SVG Version: 6.00 Build 0)  -->
<!DOCTYPE svg PUBLIC "-//W3C//DTD SVG 1.1//EN" "http://www.w3.org/Graphics/SVG/1.1/DTD/svg11.dtd">
<svg version="1.1" id="Layer_1" xmlns="http://www.w3.org/2000/svg" xmlns:xlink="http://www.w3.org/1999/xlink" x="0px" y="0px"
	 viewBox="0 0 320 320" enable-background="new 0 0 320 320" xml:space="preserve">
<g>
	<path fill="#EC2127" d="M160,320C71.776,320,0,248.449,0,160.499C0,72,71.776,0,160,0c88.225,0,160,72,160,160.499
		C320,248.449,248.225,320,160,320z M160,11.422c-81.926,0-148.578,66.876-148.578,149.078c0,81.651,66.652,148.079,148.578,148.079
		s148.578-66.428,148.578-148.079C308.578,78.298,241.926,11.422,160,11.422z"/>
	<path fill="#EC2127" stroke="#EC2127" stroke-width="11.4267" d="M160,275.216c63.636,0,115.216-51.58,115.216-115.216
		c0-63.624-51.58-115.216-115.216-115.216S44.784,96.376,44.784,160C44.784,223.636,96.364,275.216,160,275.216z"/>
	<g>
		<path fill="#FFFFFF" d="M185.809,91.358h37.525l-44.663,68.093l45.396,69.192h-37.891L160,185.26l-26.176,43.382H95.934
			l45.396-69.558L96.666,91.358h37.525L160,134.19L185.809,91.358z"/>
	</g>
</g>
</svg>
